<svg xmlns="http://www.w3.org/2000/svg" viewBox="0 0 1200 630">
  <defs>
    <linearGradient id="bg-grad" x1="0%" y1="0%" x2="100%" y2="100%">
      <stop offset="0%" style="stop-color:#0f172a;stop-opacity:1" />
      <stop offset="100%" style="stop-color:#1e293b;stop-opacity:1" />
    </linearGradient>
    <linearGradient id="accent-grad" x1="0%" y1="0%" x2="100%" y2="100%">
      <stop offset="0%" style="stop-color:#14b8a6;stop-opacity:1" />
      <stop offset="100%" style="stop-color:#0d9488;stop-opacity:1" />
    </linearGradient>
  </defs>

  <!-- Background -->
  <rect width="1200" height="630" fill="url(#bg-grad)"/>

  <!-- Decorative grid pattern -->
  <g opacity="0.1">
    <line x1="0" y1="0" x2="1200" y2="630" stroke="#14b8a6" stroke-width="1"/>
    <line x1="200" y1="0" x2="1200" y2="500" stroke="#14b8a6" stroke-width="1"/>
    <line x1="400" y1="0" x2="1200" y2="400" stroke="#14b8a6" stroke-width="1"/>
    <line x1="0" y1="200" x2="1000" y2="630" stroke="#14b8a6" stroke-width="1"/>
  </g>

  <!-- Logo icon -->
  <g transform="translate(80, 200)">
    <rect x="0" y="0" width="120" height="120" rx="24" ry="24" fill="url(#accent-grad)"/>
    <path d="M78 60c0 19.3-15.7 35-35 35s-35-15.7-35-35 15.7-35 35-35c9.7 0 18.4 3.9 24.8 10.3l-10.1 10.1c-3.9-3.9-9.3-6.3-14.7-6.3-11.5 0-20.8 9.3-20.8 20.8s9.3 20.8 20.8 20.8 20.8-9.3 20.8-20.8h-20.8v-14.2h35v14.2z" transform="translate(17, 25)" fill="white"/>
  </g>

  <!-- Title -->
  <text x="230" y="255" font-family="system-ui, -apple-system, sans-serif" font-size="72" font-weight="700" fill="white">erold</text>
  <text x="420" y="255" font-family="system-ui, -apple-system, sans-serif" font-size="72" font-weight="700" fill="#14b8a6">.guide</text>

  <!-- Tagline -->
  <text x="80" y="350" font-family="system-ui, -apple-system, sans-serif" font-size="32" fill="#94a3b8">The open encyclopedia of development guidelines</text>

  <!-- Features -->
  <g transform="translate(80, 420)">
    <rect x="0" y="0" width="280" height="50" rx="8" fill="rgba(20, 184, 166, 0.15)" stroke="#14b8a6" stroke-width="1"/>
    <text x="140" y="33" font-family="system-ui, -apple-system, sans-serif" font-size="18" fill="#14b8a6" text-anchor="middle">Best Practices</text>
  </g>
  <g transform="translate(380, 420)">
    <rect x="0" y="0" width="280" height="50" rx="8" fill="rgba(20, 184, 166, 0.15)" stroke="#14b8a6" stroke-width="1"/>
    <text x="140" y="33" font-family="system-ui, -apple-system, sans-serif" font-size="18" fill="#14b8a6" text-anchor="middle">AI-Ready API</text>
  </g>
  <g transform="translate(680, 420)">
    <rect x="0" y="0" width="280" height="50" rx="8" fill="rgba(20, 184, 166, 0.15)" stroke="#14b8a6" stroke-width="1"/>
    <text x="140" y="33" font-family="system-ui, -apple-system, sans-serif" font-size="18" fill="#14b8a6" text-anchor="middle">Community Driven</text>
  </g>

  <!-- URL -->
  <text x="80" y="560" font-family="monospace" font-size="24" fill="#64748b">https://erold.guide</text>
</svg>
